<svg xmlns="http://www.w3.org/2000/svg" width="233" height="372" fill="none" viewBox="0 0 233 372"><g clip-path="url(#clip0)"><path stroke="#14C6CB" stroke-linecap="round" stroke-width="2.25" d="M234.1 209.1L351 411.6"/><path stroke="#14C6CB" stroke-linecap="round" stroke-width="2.25" d="M208.1 209.1L351 456.6"/><path stroke="#14C6CB" stroke-linecap="round" stroke-width="2.25" d="M351 501.6L182.2 209.1"/><path stroke="#14C6CB" stroke-linecap="round" stroke-width="2.25" d="M351 546.6L156.2 209.1"/><path stroke="#14C6CB" stroke-linecap="round" stroke-width="2.25" d="M130.2 209.1L272.5 455.7"/><path stroke="#14C6CB" stroke-linecap="round" stroke-width="2.25" d="M195.2 366.6L156.2 434.1"/><path stroke="#14C6CB" stroke-linecap="round" stroke-width="2.25" d="M143.2 276.6L52.3 434.1"/><path stroke="#14C6CB" stroke-linecap="round" stroke-width="2.25" d="M156.2 299.1L78.3 434.1"/><path stroke="#14C6CB" stroke-linecap="round" stroke-width="2.25" d="M130.2 254.1L26.3 434.1"/><path stroke="#14C6CB" stroke-linecap="round" stroke-width="2.25" d="M169.2 321.6L104.2 434.1"/><path stroke="#14C6CB" stroke-linecap="round" stroke-width="2.25" d="M182.2 344.1L130.2 434.1"/><path stroke="#14C6CB" stroke-linecap="round" stroke-width="2.25" d="M182.2 749.1L0.300049 434.1L117.2 231.6"/><path stroke="#14C6CB" stroke-linecap="round" stroke-width="2.25" d="M260.1 -15.9L130.2 209.1"/><path stroke="#14C6CB" stroke-linecap="round" stroke-width="2.25" d="M338 -15.9L208.1 209.1"/><path stroke="#14C6CB" stroke-linecap="round" stroke-width="2.25" d="M351 6.59998L234.1 209.1"/><path stroke="#14C6CB" stroke-linecap="round" stroke-width="2.25" d="M286.1 -15.9L156.2 209.1"/><path stroke="#14C6CB" stroke-linecap="round" stroke-width="2.25" d="M312.1 -15.9L182.2 209.1"/><path stroke="#14C6CB" stroke-linecap="round" stroke-width="2.25" d="M78.2 -15.9L156.2 119.1"/><path stroke="#14C6CB" stroke-linecap="round" stroke-width="2.25" d="M104.2 -15.9L169.2 96.6"/><path stroke="#14C6CB" stroke-linecap="round" stroke-width="2.25" d="M26.3 -15.9L130.2 164.1"/><path stroke="#14C6CB" stroke-linecap="round" stroke-width="2.25" d="M130.2 -15.9L182.2 74.1"/><path stroke="#14C6CB" stroke-linecap="round" stroke-width="2.25" d="M156.2 -15.9L195.2 51.6"/><path stroke="#14C6CB" stroke-linecap="round" stroke-width="2.25" d="M52.3 -15.9L143.2 141.6"/><path stroke="#14C6CB" stroke-linecap="round" stroke-width="2.25" d="M0.300049 -15.9L117.2 186.6"/></g><defs><clipPath id="clip0"><rect width="233" height="372" fill="#fff"/></clipPath></defs></svg>