<svg xmlns="http://www.w3.org/2000/svg" xmlns:xlink="http://www.w3.org/1999/xlink" width="65" height="60" version="1.1" viewBox="0 0 65 60"><title>amazon_ecs-icon</title><desc>Created with Sketch.</desc><g id="Page-1" fill="none" fill-rule="evenodd" stroke="none" stroke-width="1"><g id="amazon_ecs-icon" fill-rule="nonzero" transform="translate(0.000000, -1.000000)"><path id="Shape" fill="#9D5125" d="M4.066176,56.939358 L17.57136,32.057886 L4.066176,5.180574 L0.639984,6.877038 L0.639984,55.242894 L4.066176,56.939358 Z M36.86448,17.654574 L14.477808,13.895742 L19.533936,6.777246 L42.153456,16.822974 L36.86448,17.654574 Z M37.130592,44.365566 L10.58592,48.72315 L16.141008,56.37387 L42.153456,45.130638 L37.130592,44.365566 Z"/><polygon id="Path" fill="#F58534" points="12.05 7.01 12.05 55.077 4.066 56.939 4.066 5.181"/><path id="Shape" fill="#9D5125" d="M12.049536,60.931038 L7.858272,58.835406 L7.858272,3.284526 L12.049536,1.188894 L19.933104,34.41963 L12.049536,60.931038 Z M42.153456,16.822974 L36.831216,17.654574 L36.831216,44.299038 L42.153456,45.130638 L47.01,31.59219 L42.153456,16.822974 Z"/><g id="Group" fill="#F58534" transform="translate(12.049536, 0.956046)"><polygon id="Path" points="8.15 2.561 8.15 57.68 0 59.975 0 .233"/><path id="Shape" d="M35.659008,49.896 L35.659008,43.143408 L0,49.762944 L0,59.974992 L35.659008,49.896 Z M35.725536,10.378368 L35.725536,16.931376 L0,10.14552 L0,0.232848 L35.725536,10.378368 Z"/><polygon id="Path" points="30.104 51.459 30.104 8.782 35.825 10.345 35.825 49.896"/></g><polygon id="Path" fill="#6B3B19" points="59.384 13.696 64.64 25.838 49.305 26.569 43.883 26.203"/><polygon id="Path" fill="#9D5125" points="43.883 16.224 43.883 26.203 59.384 25.305 59.384 13.696"/><polygon id="Path" fill="#6B3B19" points="36.698 25.704 29.28 25.206 45.014 9.372 52.998 24.673"/><g id="Group" fill="#9D5125" transform="translate(29.014176, 9.272046)"><path id="Shape" d="M0.266112,3.758832 L0.266112,15.933456 L15.999984,14.602896 L15.999984,0.099792 L0.266112,3.758832 Z M14.869008,36.856512 L14.869008,26.877312 L35.625744,27.209952 L30.370032,39.351312 L14.869008,36.856512 Z"/><polygon id="Path" points=".266 40.017 .266 27.842 23.983 28.374 16 43.676"/></g><path id="Shape" fill="#FCBF92" d="M36.69816,36.615054 L29.280288,37.114014 L45.01416,38.444574 L52.99752,37.646238 L36.69816,36.615054 Z M59.384208,37.014222 L64.63992,36.481998 L49.305216,35.783454 L43.883184,36.149358 L59.384208,37.014222 Z"/><path id="Shape" fill="#F58534" d="M59.384208,13.696158 L59.384208,25.305294 L64.63992,25.837518 L64.63992,15.259566 L59.384208,13.696158 Z M52.99752,11.766846 L52.99752,24.673278 L45.01416,23.874942 L45.01416,9.371838 L52.99752,11.766846 Z M59.384208,48.623358 L59.384208,37.014222 L64.63992,36.481998 L64.63992,47.05995 L59.384208,48.623358 Z M52.99752,50.55267 L52.99752,37.646238 L45.01416,38.444574 L45.01416,52.947678 L52.99752,50.55267 Z"/></g></g></svg>